<svg width="31" height="35" viewBox="0 0 31 35" fill="none" xmlns="http://www.w3.org/2000/svg">
<g clip-path="url(#clip0_119_340)" filter="url(#filter0_d_119_340)">
<path d="M26.494 21.0412C26.082 21.9845 25.5942 22.8528 25.0291 23.6511C24.259 24.7394 23.6282 25.4927 23.1422 25.9111C22.3887 26.5977 21.5815 26.9494 20.717 26.9694C20.0964 26.9694 19.3481 26.7944 18.4768 26.4393C17.6028 26.0861 16.7995 25.9111 16.0651 25.9111C15.2948 25.9111 14.4687 26.0861 13.5851 26.4393C12.7002 26.7944 11.9872 26.9793 11.4422 26.9977C10.6132 27.0327 9.7869 26.671 8.96215 25.9111C8.43574 25.456 7.77731 24.6761 6.98854 23.5711C6.14226 22.3911 5.44649 21.0229 4.90142 19.4629C4.31766 17.778 4.02502 16.1464 4.02502 14.5668C4.02502 12.7573 4.41958 11.1967 5.20987 9.88887C5.83096 8.8384 6.65723 8.00977 7.69137 7.40144C8.72552 6.79313 9.84292 6.48315 11.0463 6.4633C11.7047 6.4633 12.5681 6.66514 13.6411 7.0618C14.7111 7.45978 15.3981 7.6616 15.6993 7.6616C15.9245 7.6616 16.6878 7.42561 17.9816 6.95513C19.2051 6.5188 20.2377 6.33814 21.0836 6.40931C23.3759 6.59263 25.0981 7.48811 26.2435 9.10139C24.1933 10.3324 23.1792 12.0565 23.1993 14.2683C23.2178 15.991 23.8486 17.4246 25.088 18.5629C25.6497 19.0913 26.2771 19.4995 26.975 19.7895C26.8237 20.2246 26.6638 20.6412 26.494 21.0412ZM21.2367 0.540154C21.2367 1.89046 20.7388 3.15124 19.7466 4.3182C18.5491 5.70549 17.1007 6.50713 15.5301 6.38064C15.5101 6.21865 15.4985 6.04815 15.4985 5.86899C15.4985 4.57269 16.068 3.18541 17.0793 2.05111C17.5842 1.47679 18.2262 0.999256 19.0049 0.618318C19.782 0.243062 20.5169 0.0355377 21.2081 0C21.2282 0.180515 21.2367 0.361059 21.2367 0.540154Z" fill="black"/>
</g>
<defs>
<filter id="filter0_d_119_340" x="-2" y="0" width="35" height="35" filterUnits="userSpaceOnUse" color-interpolation-filters="sRGB">
<feFlood flood-opacity="0" result="BackgroundImageFix"/>
<feColorMatrix in="SourceAlpha" type="matrix" values="0 0 0 0 0 0 0 0 0 0 0 0 0 0 0 0 0 0 127 0" result="hardAlpha"/>
<feOffset dy="4"/>
<feGaussianBlur stdDeviation="2"/>
<feComposite in2="hardAlpha" operator="out"/>
<feColorMatrix type="matrix" values="0 0 0 0 0 0 0 0 0 0 0 0 0 0 0 0 0 0 0.25 0"/>
<feBlend mode="normal" in2="BackgroundImageFix" result="effect1_dropShadow_119_340"/>
<feBlend mode="normal" in="SourceGraphic" in2="effect1_dropShadow_119_340" result="shape"/>
</filter>
<clipPath id="clip0_119_340">
<rect width="27" height="27" fill="white" transform="translate(2)"/>
</clipPath>
</defs>
</svg>
