<svg width="34" height="34" viewBox="0 0 34 34" fill="none" xmlns="http://www.w3.org/2000/svg">
<path fill-rule="evenodd" clip-rule="evenodd" d="M32.64 17.3702C32.64 16.2149 32.5363 15.1041 32.3438 14.0378H17V20.3397H25.7679C25.3902 22.3762 24.2424 24.1017 22.5169 25.2568V29.3446H27.7821C30.8628 26.5083 32.64 22.3318 32.64 17.3702Z" fill="#4285F4"/>
<path fill-rule="evenodd" clip-rule="evenodd" d="M17 33.2915C21.3987 33.2915 25.0865 31.8326 27.7821 29.3445L22.5169 25.2567C21.058 26.2342 19.1919 26.8118 17 26.8118C12.7567 26.8118 9.16512 23.946 7.88401 20.0952H2.4411V24.3163C5.12183 29.6407 10.6314 33.2915 17 33.2915Z" fill="#34A853"/>
<path fill-rule="evenodd" clip-rule="evenodd" d="M7.88405 20.0955C7.55822 19.118 7.37309 18.0738 7.37309 17.0001C7.37309 15.9263 7.55822 14.8822 7.88405 13.9046V9.68359H2.44115C1.33776 11.883 0.708313 14.3712 0.708313 17.0001C0.708313 19.6289 1.33776 22.1171 2.44115 24.3165L7.88405 20.0955Z" fill="#FBBC05"/>
<path fill-rule="evenodd" clip-rule="evenodd" d="M17 7.18789C19.3919 7.18789 21.5394 8.00988 23.2278 9.62424L27.9005 4.95149C25.0791 2.32261 21.3912 0.708252 17 0.708252C10.6314 0.708252 5.12183 4.35907 2.4411 9.68347L7.88401 13.9045C9.16512 10.0537 12.7567 7.18789 17 7.18789Z" fill="#EA4335"/>
</svg>
