<svg width="32" height="29" viewBox="0 0 32 29" fill="none" xmlns="http://www.w3.org/2000/svg">
<path d="M16.078 0.0310059C7.67785 0.0310059 0.903442 5.45047 0.903442 12.0298C0.903442 16.3004 3.72159 20.0399 7.94882 22.1751L6.51807 27.5189C6.49109 27.5988 6.48696 27.685 6.5061 27.7671C6.52525 27.8494 6.56691 27.925 6.62647 27.9849C6.7133 28.0614 6.82503 28.1037 6.9408 28.104C7.03679 28.0965 7.12786 28.0584 7.20092 27.9957L13.3575 23.8445C14.2663 23.9698 15.1824 24.0348 16.0999 24.0394C24.4893 24.0394 31.2744 18.62 31.2744 12.0298C31.2744 5.43965 24.4675 0.0310059 16.078 0.0310059Z" fill="#392020"/>
<path d="M6.21409 10.1328H4.5557C4.35018 10.1388 4.14716 10.0861 3.97039 9.98106C3.89193 9.9319 3.82446 9.86701 3.77224 9.79052C3.71999 9.71406 3.68414 9.62761 3.66691 9.53662C3.66165 9.47894 3.66165 9.42097 3.66691 9.3633C3.66176 9.25536 3.68271 9.14771 3.72799 9.04959C3.77329 8.95147 3.84155 8.86575 3.92703 8.79965C4.116 8.66279 4.3441 8.59048 4.57738 8.59364H9.57419C9.78136 8.58635 9.98575 8.64316 10.1595 8.75623C10.2398 8.80324 10.3087 8.86753 10.3612 8.9444C10.4137 9.02124 10.4484 9.10877 10.463 9.20068C10.4683 9.25474 10.4683 9.30922 10.463 9.3633C10.4681 9.47279 10.4472 9.58192 10.402 9.68177C10.3568 9.78164 10.2885 9.86928 10.2029 9.93767C10.0185 10.0743 9.79262 10.1433 9.56333 10.1328H7.95918V15.8343C7.96569 15.9555 7.9469 16.077 7.90397 16.191C7.86107 16.3047 7.79497 16.4083 7.70987 16.4953C7.62827 16.5784 7.53021 16.6435 7.42191 16.6864C7.31364 16.7294 7.1976 16.7493 7.0812 16.7448C6.87765 16.7504 6.67838 16.6854 6.51757 16.5603C6.36446 16.4383 6.26056 16.2652 6.22492 16.0727C6.2142 15.9936 6.2142 15.9134 6.22492 15.8343L6.21409 10.1328Z" fill="#FEE500"/>
<path d="M10.9414 9.01631C10.9891 8.83795 11.1011 8.68349 11.2558 8.58272C11.4206 8.4893 11.6085 8.44421 11.7977 8.45266H12.2096C12.4105 8.44545 12.6094 8.49424 12.7841 8.59358C12.9692 8.71807 13.1008 8.90767 13.1526 9.12467L15.3204 15.2487C15.3766 15.4086 15.4237 15.5714 15.4613 15.7366C15.465 15.8052 15.465 15.8738 15.4613 15.9424C15.465 16.0482 15.4456 16.1532 15.4044 16.2507C15.3632 16.3479 15.3012 16.4351 15.2229 16.5061C15.1469 16.5839 15.0558 16.6454 14.9551 16.6865C14.8544 16.7272 14.7463 16.7472 14.6376 16.7445C14.4704 16.7613 14.3025 16.721 14.1609 16.6306C14.0193 16.5401 13.9123 16.4046 13.8572 16.2461L13.4019 14.9128H10.5512L10.096 16.2461C10.0422 16.4078 9.93386 16.5461 9.78958 16.6368C9.64531 16.7278 9.47397 16.7659 9.30476 16.7445C9.12146 16.7494 8.94194 16.6921 8.79533 16.582C8.65247 16.4683 8.55608 16.3066 8.52433 16.1268C8.51858 16.0655 8.51858 16.0036 8.52433 15.9424C8.50573 15.8349 8.50573 15.725 8.52433 15.6173C8.52433 15.4982 8.60023 15.3681 8.64356 15.2487L10.9414 9.01631ZM12.0254 10.4363L10.9956 13.688H13.0442L12.0254 10.4363Z" fill="#FEE500"/>
<path d="M15.7096 9.3634C15.6985 9.12013 15.7843 8.88245 15.948 8.70223C16.0313 8.61826 16.1312 8.55265 16.2414 8.50972C16.3515 8.46676 16.4695 8.44735 16.5875 8.4528C16.7905 8.45045 16.9887 8.51528 17.1513 8.63713C17.3016 8.76428 17.4018 8.94112 17.4329 9.13569C17.4437 9.21118 17.4437 9.28789 17.4329 9.3634V15.0648H20.4137C20.6202 15.0621 20.8235 15.1182 20.999 15.2273C21.0779 15.2759 21.1456 15.3407 21.198 15.4171C21.2504 15.4938 21.286 15.5805 21.3025 15.6717C21.3025 15.6717 21.3025 15.78 21.3025 15.8343C21.3076 15.9423 21.2866 16.0497 21.2415 16.1477C21.1961 16.246 21.1278 16.3319 21.0425 16.398C20.8535 16.5347 20.6253 16.607 20.3921 16.6038H16.7284C16.4952 16.6189 16.2632 16.5581 16.0672 16.4304C15.892 16.2995 15.7752 16.1048 15.7421 15.8886C15.7341 15.7695 15.7341 15.6499 15.7421 15.5308L15.7096 9.3634Z" fill="#FEE500"/>
<path d="M21.4978 9.36383C21.4913 9.12129 21.5763 8.88523 21.7362 8.70266C21.8987 8.55505 22.1072 8.46786 22.3264 8.45601C22.5454 8.44419 22.7619 8.50831 22.9393 8.63756C23.0932 8.7636 23.1972 8.94036 23.232 9.13611C23.2374 9.2119 23.2374 9.28804 23.232 9.36383V12.0193L25.9744 8.85429C26.0799 8.74632 26.1923 8.64507 26.3103 8.55089C26.4218 8.4846 26.5495 8.45072 26.6788 8.45326C26.8683 8.4522 27.0536 8.50896 27.2099 8.61585C27.2836 8.66548 27.3465 8.72952 27.3951 8.80401C27.4434 8.87851 27.4764 8.96196 27.4918 9.04944C27.4961 9.07091 27.4961 9.09308 27.4918 9.11454C27.4866 9.13957 27.4866 9.16536 27.4918 9.19036C27.4915 9.30441 27.4615 9.41648 27.4051 9.51557C27.3476 9.62052 27.2785 9.71856 27.1991 9.80812L25.3998 11.7809L27.5676 15.1409V15.2494C27.6802 15.4047 27.768 15.5766 27.8279 15.7589V15.8129C27.8403 15.9387 27.8223 16.0653 27.775 16.1825C27.7278 16.2994 27.653 16.4034 27.5568 16.4849C27.3759 16.6218 27.1548 16.6942 26.9283 16.6909C26.7776 16.6971 26.628 16.6634 26.4947 16.5935C26.3502 16.4965 26.2314 16.3664 26.1477 16.2141L24.1316 12.9623L23.1669 13.9704V15.7805C23.1734 16.023 23.0883 16.2589 22.9285 16.4417C22.8429 16.5254 22.7411 16.5908 22.6291 16.6337C22.5173 16.6764 22.398 16.6961 22.2783 16.6909C22.0783 16.6953 21.8831 16.6302 21.7254 16.5068C21.5723 16.3848 21.4683 16.2114 21.4327 16.0189C21.4222 15.9398 21.4222 15.8596 21.4327 15.7805L21.4978 9.36383Z" fill="#FEE500"/>
</svg>
